<?xml version="1.0" encoding="utf-8"?>
<!-- Generator: Adobe Illustrator 23.0.1, SVG Export Plug-In . SVG Version: 6.00 Build 0)  -->
<svg version="1.1" id="Camada_1" xmlns="http://www.w3.org/2000/svg" xmlns:xlink="http://www.w3.org/1999/xlink" x="0px" y="0px"
	 viewBox="0 0 280 280" style="enable-background:new 0 0 280 280;" xml:space="preserve">
<style type="text/css">
	.st0{fill:#1C1F2A;}
	.st1{fill:#78DED4;}
</style>
<rect class="st0" width="279.64" height="279.98"/>
<g>
	<g>
		<path class="st1" d="M137.37,201.57h-3.28v7.04h3.28V201.57z M137.37,191.72h-3.28v6.56h3.28V191.72z"/>
		<g>
			<path class="st1" d="M135.77,177.97c-3.15,0-5.81,2.1-6.66,4.95c-0.2,0.62-0.3,1.31-0.3,2c0,0.46,0.03,0.89,0.13,1.31
				c0.53,2.72,2.62,4.89,5.32,5.48c0.49,0.1,0.98,0.16,1.51,0.16c0.52,0,1.02-0.07,1.51-0.16c2.99-0.66,5.25-3.25,5.41-6.4
				c0.03-0.13,0.03-0.26,0.03-0.39c0-1.02-0.23-1.97-0.62-2.85C141.02,179.65,138.59,177.97,135.77,177.97z M135.77,179.61
				c2.1,0,3.9,1.18,4.72,2.95c0.39,0.69,0.59,1.51,0.59,2.36c0,0.3-0.03,0.62-0.1,0.92c-0.39,2.49-2.59,4.4-5.22,4.4
				c-2.36,0-4.36-1.57-5.05-3.71c-0.16-0.49-0.26-1.05-0.26-1.61c0-0.62,0.1-1.21,0.33-1.74
				C131.47,181.09,133.47,179.61,135.77,179.61z"/>
			<path class="st1" d="M135.77,176.33c-3.9,0-7.25,2.63-8.27,6.23c-0.2,0.75-0.33,1.54-0.33,2.36c0,0.33,0.03,0.62,0.03,0.95
				c0.43,3.74,3.28,6.76,6.89,7.48c0.56,0.1,1.12,0.16,1.67,0.16c0.56,0,1.08-0.07,1.61-0.13c3.97-0.79,6.99-4.3,6.99-8.47v-0.2
				c-0.03-1.18-0.3-2.3-0.72-3.28C142.3,178.43,139.28,176.33,135.77,176.33z M130.78,183.19c0.69-2.1,2.69-3.58,4.99-3.58
				c2.1,0,3.9,1.18,4.72,2.95c0.39,0.69,0.59,1.51,0.59,2.36c0,0.3-0.03,0.62-0.1,0.92c-0.39,2.49-2.59,4.4-5.22,4.4
				c-2.36,0-4.36-1.57-5.05-3.71c-0.16-0.49-0.26-1.05-0.26-1.61C130.45,184.31,130.55,183.72,130.78,183.19z"/>
		</g>
	</g>
	<g>
		<path class="st1" d="M101.27,173.12l-0.23-0.23c-0.92-0.46-1.67-1.18-2.13-2.07l-1.21,1.25l-1.18,1.15l-2.2,2.23l2.33,2.33
			l2.3-2.3l1.18-1.21L101.27,173.12z M94.31,180.07l-2.33-2.3l-4.63,4.63l2.33,2.33L94.31,180.07z M87.36,187.03l-2.33-2.3
			l-1.35,1.35c-0.2,0.2-0.46,0.39-0.72,0.52c-0.43,0.23-0.92,0.36-1.41,0.36h-0.98v3.28h0.98c1.02,0,2.07-0.26,2.95-0.75
			c0.56-0.3,1.05-0.66,1.51-1.08L87.36,187.03z M77.28,190.25v-3.28h-6.56v3.28H77.28z M67.44,190.25v-3.28h-2.56v3.28H67.44z"/>
		<g>
			<path class="st1" d="M110.43,168.2c0-3.84-3.12-6.96-6.96-6.96c-0.89,0-1.77,0.16-2.56,0.53c-1.05,0.39-1.97,1.05-2.69,1.87v0.03
				c-1.05,1.25-1.71,2.76-1.71,4.53c0,1.44,0.46,2.79,1.18,3.87c0.62,0.92,1.44,1.71,2.43,2.2c0.98,0.56,2.13,0.89,3.35,0.89
				c0.98,0,1.94-0.2,2.79-0.62c1.05-0.43,1.94-1.12,2.66-2C109.87,171.35,110.43,169.84,110.43,168.2z M108.79,168.2
				c0,1.18-0.39,2.3-1.12,3.18c-0.62,0.92-1.61,1.61-2.72,1.9c-0.46,0.16-0.95,0.23-1.48,0.23c-0.89,0-1.71-0.23-2.43-0.62
				c-0.92-0.46-1.67-1.18-2.13-2.07c-0.49-0.79-0.75-1.67-0.75-2.62c0-1.05,0.3-2.03,0.85-2.85c0.59-0.95,1.51-1.71,2.59-2.1
				c0.56-0.23,1.21-0.36,1.87-0.36C106.39,162.88,108.79,165.28,108.79,168.2z"/>
			<path class="st1" d="M112.07,168.2c0-4.76-3.87-8.6-8.6-8.6c-1.08,0-2.13,0.2-3.12,0.59c-1.05,0.39-2.03,1.02-2.82,1.8
				c-1.64,1.54-2.66,3.74-2.66,6.2c0,1.87,0.59,3.61,1.64,5.02c0.66,0.92,1.48,1.67,2.43,2.26c1.31,0.85,2.85,1.31,4.53,1.31
				c1.51,0,2.92-0.39,4.17-1.12c0.98-0.53,1.87-1.28,2.56-2.17C111.35,172.04,112.07,170.2,112.07,168.2z M108.79,168.2
				c0,1.18-0.39,2.3-1.12,3.18c-0.62,0.92-1.61,1.61-2.72,1.9c-0.46,0.16-0.95,0.23-1.48,0.23c-0.89,0-1.71-0.23-2.43-0.62
				c-0.92-0.46-1.67-1.18-2.13-2.07c-0.49-0.79-0.75-1.67-0.75-2.62c0-1.05,0.3-2.03,0.85-2.85c0.59-0.95,1.51-1.71,2.59-2.1
				c0.56-0.23,1.21-0.36,1.87-0.36C106.39,162.88,108.79,165.28,108.79,168.2z"/>
		</g>
	</g>
	<g>
		<path class="st1" d="M171.37,174.5l1.18,1.21l2.3,2.3l2.33-2.33l-2.2-2.23l-1.18-1.15l-1.21-1.25c-0.46,0.89-1.21,1.61-2.13,2.07
			l-0.23,0.23L171.37,174.5z M181.81,184.96l2.33-2.33l-4.63-4.63l-2.33,2.3L181.81,184.96z M185.48,188.64
			c0.46,0.43,0.95,0.79,1.51,1.08c0.89,0.49,1.94,0.75,2.95,0.75h0.98v-3.28h-0.98c-0.49,0-0.98-0.13-1.41-0.36
			c-0.26-0.13-0.53-0.33-0.72-0.52l-1.35-1.35l-2.33,2.3L185.48,188.64z M200.77,190.48v-3.28h-6.56v3.28H200.77z M206.61,190.48
			v-3.28h-2.56v3.28H206.61z"/>
		<g>
			<path class="st1" d="M162.58,172.76c0.72,0.89,1.61,1.57,2.66,2c0.85,0.43,1.8,0.62,2.79,0.62c1.21,0,2.36-0.33,3.35-0.89
				c0.98-0.49,1.8-1.28,2.43-2.2c0.72-1.08,1.18-2.43,1.18-3.87c0-1.77-0.66-3.28-1.71-4.53v-0.03c-0.72-0.82-1.64-1.48-2.69-1.87
				c-0.79-0.36-1.67-0.53-2.56-0.53c-3.84,0-6.96,3.12-6.96,6.96C161.07,170.07,161.63,171.58,162.58,172.76z M168.02,163.11
				c0.66,0,1.31,0.13,1.87,0.36c1.08,0.39,2,1.15,2.59,2.1c0.56,0.82,0.85,1.8,0.85,2.85c0,0.95-0.26,1.84-0.75,2.62
				c-0.46,0.89-1.21,1.61-2.13,2.07c-0.72,0.39-1.54,0.62-2.43,0.62c-0.53,0-1.02-0.07-1.48-0.23c-1.12-0.3-2.1-0.98-2.72-1.9
				c-0.72-0.89-1.12-2-1.12-3.18C162.71,165.51,165.1,163.11,168.02,163.11z"/>
			<path class="st1" d="M161.3,173.74c0.69,0.89,1.57,1.64,2.56,2.17c1.25,0.72,2.66,1.12,4.17,1.12c1.67,0,3.22-0.46,4.53-1.31
				c0.95-0.59,1.77-1.35,2.43-2.26c1.05-1.41,1.64-3.15,1.64-5.02c0-2.46-1.02-4.66-2.66-6.2c-0.79-0.79-1.77-1.41-2.82-1.8
				c-0.98-0.39-2.03-0.59-3.12-0.59c-4.73,0-8.6,3.84-8.6,8.6C159.43,170.43,160.15,172.27,161.3,173.74z M168.02,163.11
				c0.66,0,1.31,0.13,1.87,0.36c1.08,0.39,2,1.15,2.59,2.1c0.56,0.82,0.85,1.8,0.85,2.85c0,0.95-0.26,1.84-0.75,2.62
				c-0.46,0.89-1.21,1.61-2.13,2.07c-0.72,0.39-1.54,0.62-2.43,0.62c-0.53,0-1.02-0.07-1.48-0.23c-1.12-0.3-2.1-0.98-2.72-1.9
				c-0.72-0.89-1.12-2-1.12-3.18C162.71,165.51,165.1,163.11,168.02,163.11z"/>
		</g>
	</g>
	<g>
		<path class="st1" d="M137.37,72.55h-3.28v7.04h3.28V72.55z M137.37,82.87h-3.28v6.56h3.28V82.87z"/>
		<g>
			<path class="st1" d="M142.1,99.08c0.39-0.89,0.62-1.84,0.62-2.85c0-0.13,0-0.26-0.03-0.39c-0.16-3.15-2.43-5.74-5.41-6.4
				c-0.49-0.1-0.98-0.16-1.51-0.16c-0.53,0-1.02,0.07-1.51,0.16c-2.69,0.59-4.79,2.76-5.32,5.48c-0.1,0.43-0.13,0.85-0.13,1.31
				c0,0.69,0.1,1.38,0.3,2c0.85,2.85,3.51,4.95,6.66,4.95C138.59,103.19,141.02,101.51,142.1,99.08z M130.78,97.97
				c-0.23-0.52-0.33-1.12-0.33-1.74c0-0.56,0.1-1.12,0.26-1.61c0.69-2.13,2.69-3.71,5.05-3.71c2.62,0,4.82,1.9,5.22,4.4
				c0.07,0.3,0.1,0.62,0.1,0.92c0,0.85-0.2,1.67-0.59,2.36c-0.82,1.77-2.62,2.95-4.72,2.95
				C133.47,101.55,131.47,100.07,130.78,97.97z"/>
			<path class="st1" d="M143.64,99.71c0.43-0.98,0.69-2.1,0.72-3.28v-0.2c0-4.17-3.02-7.68-6.99-8.47
				c-0.52-0.07-1.05-0.13-1.61-0.13c-0.56,0-1.12,0.07-1.67,0.16c-3.61,0.72-6.46,3.74-6.89,7.48c0,0.33-0.03,0.62-0.03,0.95
				c0,0.82,0.13,1.61,0.33,2.36c1.02,3.61,4.36,6.23,8.27,6.23C139.28,104.83,142.3,102.73,143.64,99.71z M130.45,96.23
				c0-0.56,0.1-1.12,0.26-1.61c0.69-2.13,2.69-3.71,5.05-3.71c2.62,0,4.82,1.9,5.22,4.4c0.07,0.3,0.1,0.62,0.1,0.92
				c0,0.85-0.2,1.67-0.59,2.36c-0.82,1.77-2.62,2.95-4.72,2.95c-2.3,0-4.3-1.48-4.99-3.58C130.55,97.44,130.45,96.85,130.45,96.23z"
				/>
		</g>
	</g>
	<g>
		<path class="st1" d="M100.12,106.89l-1.18-1.21l-2.3-2.3l-2.33,2.33l2.2,2.23l1.18,1.15l1.21,1.25c0.46-0.89,1.21-1.61,2.13-2.07
			l0.23-0.23L100.12,106.89z M89.69,96.43l-2.33,2.33l4.63,4.63l2.33-2.3L89.69,96.43z M86.01,92.75c-0.46-0.43-0.95-0.79-1.51-1.08
			c-0.89-0.49-1.94-0.75-2.95-0.75h-0.98v3.28h0.98c0.49,0,0.98,0.13,1.41,0.36c0.26,0.13,0.53,0.33,0.72,0.52l1.35,1.35l2.33-2.3
			L86.01,92.75z M70.72,90.91v3.28h6.56v-3.28H70.72z M64.88,90.91v3.28h2.56v-3.28H64.88z"/>
		<g>
			<path class="st1" d="M108.92,108.63c-0.72-0.89-1.61-1.57-2.66-2c-0.85-0.43-1.8-0.62-2.79-0.62c-1.21,0-2.36,0.33-3.35,0.89
				c-0.98,0.49-1.8,1.28-2.43,2.2c-0.72,1.08-1.18,2.43-1.18,3.87c0,1.77,0.66,3.28,1.71,4.53v0.03c0.72,0.82,1.64,1.48,2.69,1.87
				c0.79,0.36,1.67,0.53,2.56,0.53c3.84,0,6.96-3.12,6.96-6.96C110.43,111.32,109.87,109.81,108.92,108.63z M103.47,118.28
				c-0.66,0-1.31-0.13-1.87-0.36c-1.08-0.39-2-1.15-2.59-2.1c-0.56-0.82-0.85-1.8-0.85-2.85c0-0.95,0.26-1.84,0.75-2.62
				c0.46-0.89,1.21-1.61,2.13-2.07c0.72-0.39,1.54-0.62,2.43-0.62c0.53,0,1.02,0.07,1.48,0.23c1.12,0.3,2.1,0.98,2.72,1.9
				c0.72,0.89,1.12,2,1.12,3.18C108.79,115.88,106.39,118.28,103.47,118.28z"/>
			<path class="st1" d="M110.2,107.65c-0.69-0.89-1.58-1.64-2.56-2.17c-1.25-0.72-2.66-1.12-4.17-1.12c-1.67,0-3.22,0.46-4.53,1.31
				c-0.95,0.59-1.77,1.35-2.43,2.26c-1.05,1.41-1.64,3.15-1.64,5.02c0,2.46,1.02,4.66,2.66,6.2c0.79,0.79,1.77,1.41,2.82,1.8
				c0.98,0.39,2.03,0.59,3.12,0.59c4.73,0,8.6-3.84,8.6-8.6C112.07,110.96,111.35,109.13,110.2,107.65z M103.47,118.28
				c-0.66,0-1.31-0.13-1.87-0.36c-1.08-0.39-2-1.15-2.59-2.1c-0.56-0.82-0.85-1.8-0.85-2.85c0-0.95,0.26-1.84,0.75-2.62
				c0.46-0.89,1.21-1.61,2.13-2.07c0.72-0.39,1.54-0.62,2.43-0.62c0.53,0,1.02,0.07,1.48,0.23c1.12,0.3,2.1,0.98,2.72,1.9
				c0.72,0.89,1.12,2,1.12,3.18C108.79,115.88,106.39,118.28,103.47,118.28z"/>
		</g>
	</g>
	<g>
		<path class="st1" d="M170.22,107.81l0.23,0.23c0.92,0.46,1.67,1.18,2.13,2.07l1.21-1.25l1.18-1.15l2.2-2.23l-2.33-2.33l-2.3,2.3
			l-1.18,1.21L170.22,107.81z M177.18,100.86l2.33,2.3l4.63-4.63l-2.33-2.33L177.18,100.86z M184.14,93.9l2.33,2.3l1.35-1.35
			c0.2-0.2,0.46-0.39,0.72-0.52c0.43-0.23,0.92-0.36,1.41-0.36h0.98v-3.28h-0.98c-1.02,0-2.07,0.26-2.95,0.75
			c-0.56,0.3-1.05,0.66-1.51,1.08L184.14,93.9z M194.21,90.68v3.28h6.56v-3.28H194.21z M204.05,90.68v3.28h2.56v-3.28H204.05z"/>
		<g>
			<path class="st1" d="M161.07,112.73c0,3.84,3.12,6.96,6.96,6.96c0.89,0,1.77-0.16,2.56-0.53c1.05-0.39,1.97-1.05,2.69-1.87v-0.03
				c1.05-1.25,1.71-2.76,1.71-4.53c0-1.44-0.46-2.79-1.18-3.87c-0.62-0.92-1.44-1.71-2.43-2.2c-0.98-0.56-2.13-0.89-3.35-0.89
				c-0.98,0-1.94,0.2-2.79,0.62c-1.05,0.43-1.94,1.12-2.66,2C161.63,109.58,161.07,111.09,161.07,112.73z M162.71,112.73
				c0-1.18,0.39-2.3,1.12-3.18c0.62-0.92,1.61-1.61,2.72-1.9c0.46-0.16,0.95-0.23,1.48-0.23c0.89,0,1.71,0.23,2.43,0.62
				c0.92,0.46,1.67,1.18,2.13,2.07c0.49,0.79,0.75,1.67,0.75,2.62c0,1.05-0.3,2.03-0.85,2.85c-0.59,0.95-1.51,1.71-2.59,2.1
				c-0.56,0.23-1.21,0.36-1.87,0.36C165.1,118.05,162.71,115.65,162.71,112.73z"/>
			<path class="st1" d="M159.43,112.73c0,4.76,3.87,8.6,8.6,8.6c1.08,0,2.13-0.2,3.12-0.59c1.05-0.39,2.03-1.02,2.82-1.8
				c1.64-1.54,2.66-3.74,2.66-6.2c0-1.87-0.59-3.61-1.64-5.02c-0.66-0.92-1.48-1.67-2.43-2.26c-1.31-0.85-2.85-1.31-4.53-1.31
				c-1.51,0-2.92,0.39-4.17,1.12c-0.98,0.53-1.87,1.28-2.56,2.17C160.15,108.9,159.43,110.73,159.43,112.73z M162.71,112.73
				c0-1.18,0.39-2.3,1.12-3.18c0.62-0.92,1.61-1.61,2.72-1.9c0.46-0.16,0.95-0.23,1.48-0.23c0.89,0,1.71,0.23,2.43,0.62
				c0.92,0.46,1.67,1.18,2.13,2.07c0.49,0.79,0.75,1.67,0.75,2.62c0,1.05-0.3,2.03-0.85,2.85c-0.59,0.95-1.51,1.71-2.59,2.1
				c-0.56,0.23-1.21,0.36-1.87,0.36C165.1,118.05,162.71,115.65,162.71,112.73z"/>
		</g>
	</g>
	<path class="st1" d="M133.55,166.57c-0.08,0-0.16,0-0.24-0.01c-1.61-0.18-3.2-0.51-4.73-0.98c-0.97-0.3-1.62-1.18-1.62-2.2v-3.06
		c-0.15-0.07-0.3-0.14-0.45-0.21l-2.87,1.91c-0.8,0.53-1.86,0.51-2.64-0.06c-1.3-0.95-2.51-2.03-3.61-3.21
		c-0.69-0.74-0.81-1.83-0.3-2.72l1.53-2.65c-0.1-0.13-0.19-0.27-0.28-0.41l-3.45,0.22c-0.96,0.06-1.87-0.49-2.26-1.37
		c-0.65-1.47-1.16-3.02-1.52-4.59c-0.23-0.99,0.22-2,1.1-2.51l2.65-1.53c-0.01-0.16-0.03-0.33-0.04-0.49l-3.09-1.54
		c-0.86-0.43-1.37-1.36-1.27-2.32c0.17-1.6,0.5-3.19,0.98-4.73c0.3-0.97,1.19-1.62,2.2-1.62h3.06c0.07-0.15,0.14-0.3,0.21-0.45
		l-1.91-2.88c-0.53-0.8-0.51-1.86,0.06-2.64c0.95-1.3,2.03-2.51,3.21-3.61c0.74-0.69,1.84-0.81,2.72-0.3l2.65,1.53
		c0.13-0.1,0.27-0.19,0.41-0.28l-0.21-3.45c-0.06-0.96,0.49-1.87,1.37-2.25c1.48-0.65,3.02-1.16,4.59-1.52
		c0.98-0.22,1.99,0.22,2.5,1.1l1.53,2.65c0.16-0.01,0.33-0.03,0.49-0.04l1.54-3.09c0.43-0.86,1.36-1.38,2.31-1.27
		c1.61,0.18,3.2,0.5,4.73,0.98c0.97,0.3,1.62,1.18,1.62,2.2v3.06c0.15,0.07,0.3,0.14,0.45,0.21l2.87-1.91
		c0.8-0.53,1.86-0.51,2.64,0.06c1.3,0.95,2.51,2.03,3.61,3.21c0.69,0.74,0.81,1.83,0.3,2.72l-1.53,2.65
		c0.1,0.13,0.19,0.27,0.28,0.41l3.45-0.21c0.95-0.06,1.87,0.49,2.25,1.37c0.65,1.47,1.16,3.02,1.52,4.59
		c0.22,0.99-0.22,1.99-1.1,2.5l-2.65,1.53c0.01,0.16,0.03,0.33,0.04,0.49l3.09,1.54c0.87,0.43,1.37,1.36,1.27,2.32
		c-0.17,1.6-0.5,3.19-0.98,4.73v0c-0.3,0.97-1.19,1.62-2.2,1.62h-3.06c-0.07,0.15-0.14,0.3-0.21,0.45l1.91,2.88
		c0.53,0.8,0.51,1.86-0.06,2.64c-0.95,1.3-2.03,2.51-3.21,3.61c-0.74,0.69-1.84,0.81-2.72,0.3l-2.65-1.53
		c-0.13,0.1-0.27,0.19-0.41,0.28l0.21,3.45c0.06,0.96-0.49,1.87-1.37,2.25c-1.48,0.65-3.02,1.16-4.59,1.52
		c-0.99,0.22-2-0.22-2.5-1.1l-1.53-2.65c-0.16,0.01-0.33,0.03-0.49,0.04l-1.54,3.09C135.23,166.07,134.42,166.57,133.55,166.57z
		 M130.29,162.6c0.87,0.24,1.76,0.42,2.66,0.55l1.48-2.98c0.38-0.76,1.14-1.25,1.99-1.28c0.5-0.02,1-0.06,1.49-0.12
		c0.93-0.11,1.82,0.33,2.28,1.14l1.48,2.56c0.87-0.23,1.74-0.52,2.58-0.86l-0.21-3.32c-0.05-0.84,0.36-1.64,1.07-2.1
		c0.41-0.26,0.82-0.55,1.23-0.86c0.74-0.57,1.74-0.63,2.55-0.16l2.57,1.48c0.64-0.64,1.25-1.32,1.81-2.03l-1.84-2.77
		c-0.47-0.7-0.51-1.6-0.12-2.36c0.23-0.44,0.45-0.9,0.64-1.35c0.36-0.86,1.2-1.42,2.13-1.42h2.96c0.24-0.87,0.42-1.77,0.55-2.66
		l-2.98-1.48c-0.76-0.38-1.25-1.14-1.28-1.98c-0.02-0.51-0.06-1.01-0.12-1.5c-0.11-0.92,0.33-1.82,1.13-2.28l2.57-1.48
		c-0.23-0.88-0.52-1.74-0.86-2.58l-3.32,0.21c-0.83,0.06-1.64-0.36-2.09-1.07c-0.26-0.41-0.55-0.83-0.86-1.23
		c-0.56-0.75-0.63-1.75-0.16-2.55l1.48-2.57c-0.64-0.64-1.32-1.25-2.03-1.81l-2.77,1.84c-0.7,0.47-1.6,0.51-2.36,0.11
		c-0.43-0.23-0.89-0.44-1.35-0.64c-0.86-0.36-1.42-1.2-1.42-2.13v-2.96c-0.87-0.24-1.76-0.42-2.66-0.55l-1.48,2.98
		c-0.38,0.76-1.14,1.25-1.99,1.28c-0.51,0.02-1.01,0.06-1.49,0.12c-0.93,0.11-1.82-0.33-2.29-1.14l-1.48-2.56
		c-0.88,0.23-1.74,0.52-2.58,0.86l0.21,3.32c0.05,0.84-0.36,1.64-1.07,2.09c-0.42,0.26-0.83,0.55-1.23,0.86
		c-0.75,0.56-1.75,0.63-2.55,0.16l-2.57-1.48c-0.64,0.64-1.25,1.32-1.81,2.03l1.84,2.77c0.47,0.71,0.51,1.61,0.12,2.36
		c-0.23,0.44-0.45,0.89-0.64,1.35c-0.36,0.86-1.2,1.42-2.13,1.42h-2.96c-0.24,0.87-0.42,1.77-0.55,2.66l2.98,1.48
		c0.76,0.38,1.25,1.13,1.28,1.98c0.02,0.51,0.06,1.01,0.12,1.5c0.11,0.92-0.33,1.82-1.13,2.28l-2.57,1.48
		c0.23,0.88,0.52,1.74,0.86,2.58l3.32-0.21c0.85-0.05,1.64,0.36,2.1,1.07c0.26,0.41,0.55,0.82,0.86,1.23
		c0.56,0.74,0.63,1.74,0.16,2.55l-1.48,2.57c0.64,0.64,1.32,1.25,2.03,1.81l2.77-1.84c0.7-0.47,1.61-0.51,2.36-0.11
		c0.43,0.23,0.89,0.44,1.36,0.64c0.86,0.36,1.41,1.2,1.41,2.13V162.6z M138.32,162.08C138.32,162.08,138.32,162.08,138.32,162.08
		C138.32,162.08,138.32,162.08,138.32,162.08z M137.31,161.57C137.32,161.57,137.32,161.57,137.31,161.57L137.31,161.57z
		 M127.58,160.58C127.58,160.59,127.58,160.59,127.58,160.58C127.58,160.59,127.58,160.59,127.58,160.58z M147.39,158.09
		L147.39,158.09C147.39,158.09,147.39,158.09,147.39,158.09z M148.38,158C148.38,158,148.38,158,148.38,158
		C148.38,158,148.38,158,148.38,158z M119.02,153.91C119.02,153.91,119.03,153.91,119.02,153.91
		C119.03,153.91,119.02,153.91,119.02,153.91z M154.29,151.06C154.29,151.06,154.29,151.06,154.29,151.06
		C154.29,151.06,154.29,151.06,154.29,151.06z M154.23,150.01L154.23,150.01C154.23,150.01,154.23,150.01,154.23,150.01z
		 M113.89,147.6L113.89,147.6C113.89,147.6,113.89,147.6,113.89,147.6z M156.85,147.46C156.85,147.46,156.85,147.46,156.85,147.46
		C156.85,147.46,156.85,147.46,156.85,147.46z M157.7,143.36C157.7,143.36,157.7,143.36,157.7,143.36
		C157.7,143.36,157.7,143.36,157.7,143.36z M113.79,139.2C113.79,139.2,113.79,139.2,113.79,139.2
		C113.79,139.2,113.79,139.2,113.79,139.2z M156.81,132.72L156.81,132.72C156.81,132.72,156.81,132.72,156.81,132.72z
		 M152.56,129.64C152.55,129.64,152.55,129.64,152.56,129.64L152.56,129.64z M124.11,124.47
		C124.11,124.47,124.11,124.47,124.11,124.47L124.11,124.47z M149.7,123.33L149.7,123.33C149.7,123.33,149.7,123.33,149.7,123.33z
		 M134.18,120.98L134.18,120.98C134.18,120.99,134.18,120.99,134.18,120.98z M134.94,120.34
		C134.94,120.34,134.94,120.34,134.94,120.34C134.94,120.34,134.94,120.34,134.94,120.34z"/>
	<path class="st1" d="M135.77,154.57c-7.34,0-13.3-5.96-13.3-13.29s5.97-13.29,13.3-13.29c7.34,0,13.3,5.96,13.3,13.29
		S143.1,154.57,135.77,154.57z M135.77,131.33c-5.5,0-9.97,4.46-9.97,9.95c0,5.49,4.47,9.95,9.97,9.95c5.5,0,9.97-4.46,9.97-9.95
		C145.73,135.79,141.26,131.33,135.77,131.33z"/>
</g>
</svg>
