<?xml version="1.0" encoding="utf-8"?>
<!-- Generator: Adobe Illustrator 23.0.0, SVG Export Plug-In . SVG Version: 6.00 Build 0)  -->
<svg version="1.1" id="Camada_1" xmlns="http://www.w3.org/2000/svg" xmlns:xlink="http://www.w3.org/1999/xlink" x="0px" y="0px"
	 viewBox="0 0 342 389" style="enable-background:new 0 0 342 389;" xml:space="preserve">
<style type="text/css">
	.st0{fill:#78DED4;}
	.st1{fill:#78DED4;stroke:#1D1D1B;stroke-miterlimit:10;}
</style>
<g>
	<path class="st0" d="M68.6,265.3l-2.8,2.8c-0.2,0.1-0.3,0.3-0.5,0.4c-0.7,0.6-1.7,0.9-2.7,0.9h-0.4l0.4,4.9c2,0,4.1-0.7,5.7-1.9
		c0.3-0.3,0.7-0.5,1-0.8l2.8-2.9L68.6,265.3z M52.4,269.4v4.9h4.9v-4.9H52.4z M47.5,269.4v4.9h4.9v-4.9H47.5z M37.7,269.4v4.9h4.9
		v-4.9H37.7z M79,254.8l-3.5,3.5l-3.4,3.5l3.5,3.4l3.4-3.5l2.7-2.6l0.8-0.8L79,254.8z"/>
	<path class="st0" d="M90.4,84.3l-1.8-1.8l-3.4-3.4l-3.5,3.5l3.3,3.3l1.8,1.7l1.8,1.9c0.7-1.3,1.8-2.4,3.2-3.1l0.3-0.3L90.4,84.3z
		 M74.8,68.7l-3.5,3.5l6.9,6.9l3.5-3.4L74.8,68.7z M69.3,63.2c-0.7-0.6-1.4-1.2-2.3-1.6c-1.3-0.7-2.9-1.1-4.4-1.1h-1.5v4.9h1.5
		c0.7,0,1.5,0.2,2.1,0.5c0.4,0.2,0.8,0.5,1.1,0.8l2,2l3.5-3.4L69.3,63.2z M46.4,60.4v4.9h9.8v-4.9H46.4z M37.7,60.4v4.9h3.8v-4.9
		H37.7z"/>
	<path class="st0" d="M28.2,165.5v4.9h10.6v-4.9H28.2z M43.7,165.5v4.9h9.8v-4.9H43.7z"/>
	<path class="st1" d="M102.1,221.1"/>
	<path class="st1" d="M107.2,114.4"/>
	<path class="st1" d="M74.1,145.9"/>
	<g>
		<path class="st0" d="M160.6,73.3v48c-2.3,1.8-4,4.3-4.9,7.1V73.3c0-1.9-1.1-3.5-2.9-4.2c-3-1.2-7.8-2.5-13.4-1.8
			c-11.6,1.4-19.8,9.4-22.1,11.8c-1.2,1.2-2.6,2.1-4.1,2.6c-1.9,0.6-4.5,1.4-7.8,3.8c-0.6,0.4-1.2,0.9-1.9,1.5
			c-0.6,0.5-1.2,1.1-1.9,1.7c-0.9-1.4-2.4-2.4-4.1-2.8c0.7-0.7,1.3-1.3,2-1.9c0.7-0.7,1.4-1.2,2.1-1.7c4.4-3.4,7.9-4.5,10.2-5.3
			c0.7-0.3,1.4-0.6,1.9-1.2c2.6-2.8,11.8-11.8,25.1-13.4c6.7-0.8,12.3,0.8,15.9,2.2C158.3,66.1,160.6,69.5,160.6,73.3z"/>
		<path class="st0" d="M63.7,160c-0.4,0-0.9,0.1-1.4,0.1c0.3-0.9,0.5-1.7,0.8-2.6c0.3-0.9,0.6-1.7,0.9-2.5c2-4.7,4.4-8,6.1-10.1
			c0.8-0.8,1.1-2,1-3.1c-0.3-3.7-0.2-9.4,2.5-15.2c2.6-5.5,5.9-8.9,8.9-11.5c0.8-0.7,1.3-1.5,1.5-2.5c0.4-2.5,1.1-6,2.6-10
			c0.3-0.8,0.6-1.6,1-2.5v-0.1c0.3-0.8,0.7-1.7,1.2-2.5c0.9,1.4,2.3,2.6,3.9,3.1c-0.4,0.7-0.7,1.5-1,2.2c-0.3,0.8-0.6,1.6-0.8,2.4
			c-1.1,3.1-1.6,5.9-2,8.1c-0.4,2.1-1.5,4-3.1,5.3c-2.7,2.4-5.6,5.2-7.7,9.9c-2.2,4.8-2.4,9.5-2.1,12.7c0.3,2.5-0.5,4.9-2.2,6.8
			c-1.4,1.6-3.4,4.3-5,7.9c-0.3,0.7-0.6,1.5-0.9,2.3c-0.3,0.7-0.5,1.6-0.7,2.4C66.2,160.3,64.9,160,63.7,160z"/>
		<path class="st0" d="M86.1,240.8c-1.7,0.5-3.1,1.6-4,3c-0.5-0.9-0.9-1.7-1.2-2.6c-0.4-0.8-0.7-1.7-0.9-2.5
			c-1.8-4.9-2.4-9.2-2.6-11.5c-0.1-1-0.5-1.9-1.2-2.6c-2-2.4-5.8-7.4-8.1-15c-1.3-4.2-1.7-9.2-1.2-14.9c0.1-1-0.1-1.8-0.4-2.5
			c-1.1-2.1-3-6.1-4.2-11.3c-0.2-0.8-0.4-1.7-0.5-2.6c-0.2-0.8-0.3-1.8-0.4-2.6c0.7,0.3,1.6,0.4,2.4,0.4c0.9,0,1.8-0.1,2.6-0.5
			c0.1,0.8,0.3,1.7,0.4,2.5c0.2,0.8,0.3,1.7,0.5,2.4c1.1,4.3,2.7,7.7,3.6,9.4c0.8,1.5,1.1,3.3,1,5.2c-0.3,3.5-0.3,8.6,1,13.2
			c2,6.7,5.3,11.1,7.1,13.2c1.4,1.6,2.2,3.5,2.4,5.4c0.2,2,0.6,5.4,2,9.4c0.3,0.7,0.5,1.5,0.8,2.3C85.4,239.2,85.7,240,86.1,240.8z"
			/>
		<path class="st0" d="M160.6,214.3v38c0,5.7-3.5,10-6.5,13.1c-3.8,3.8-12.4,7.9-21.5,8.1c-0.6,0-1.2,0-1.8,0
			c-13.9,0-20.7-4.6-24-8.5c-0.5-0.6-1.2-1.1-2.1-1.4c-3.5-1.2-6.6-2.8-9.3-4.6c-0.8-0.5-1.5-1-2.2-1.6c-0.7-0.6-1.5-1.2-2.1-1.8
			c1.7-0.5,3.1-1.6,4-3.1c0.6,0.5,1.3,1,2,1.5c0.6,0.4,1.3,0.9,2,1.3c2.2,1.4,4.6,2.6,7.3,3.5c1.7,0.6,3.1,1.6,4.2,2.9
			c2.7,3.2,8.7,7.1,21.9,6.7c8.2-0.2,15.5-4,18.1-6.6c3.6-3.7,5.2-6.6,5.2-9.7v-45.1C156.6,210.1,158.3,212.5,160.6,214.3z"/>
	</g>
	<path class="st0" d="M311.7,35v90.5c0,5.2-4.2,9.4-9.4,9.4h-31.6c-3.7,0-7.1-2.2-8.6-5.6c-1.3-2.9-3.6-7.1-7.4-10.2
		c-1.4-1.1-3.1-3.3-3.4-5.5c-0.9-4.9-2.4-12.6-8.6-20.1c-7.4-9.2-12.8-10.9-16.1-11.9c-1.5-0.5-2.9-1.4-4-2.6
		c-2.3-2.4-10.5-10.4-22.1-11.8c-5.6-0.7-10.4,0.6-13.4,1.8c-1.7,0.7-2.9,2.4-2.9,4.2v55.2c-0.9-2.8-2.6-5.3-4.9-7.2v-48
		c0-3.8,2.3-7.3,5.9-8.7c3.6-1.4,9.2-3,15.9-2.2c13.3,1.6,22.6,10.6,25.1,13.4c0.5,0.6,1.2,1,1.9,1.2c4.9,1.5,10.8,4,18.4,13.6
		c6.9,8.4,8.6,17.3,9.5,22.1c0.2,0.9,1,2.2,1.8,2.8c4.5,3.6,7.2,8.5,8.7,12c0.7,1.6,2.3,2.6,4.1,2.6h31.6c2.5,0,4.5-2,4.5-4.5V35
		c0-2.5-2-4.5-4.5-4.5H37.6c-2.5,0-4.5,2-4.5,4.5v20.9c0,2.5,2,4.5,4.5,4.5v4.9c-5.2,0-9.4-4.2-9.4-9.4V35c0-5.2,4.2-9.4,9.4-9.4
		h264.7C307.5,25.6,311.7,29.8,311.7,35z"/>
	<path class="st0" d="M311.7,209.4v90.2c0,5.2-4.2,9.4-9.4,9.4H37.6c-5.2,0-9.4-4.2-9.4-9.4v-20.7c0-5.2,4.2-9.4,9.4-9.4v4.9
		c-2.5,0-4.5,2-4.5,4.5v20.7c0,2.5,2,4.5,4.5,4.5h264.7c2.5,0,4.5-2,4.5-4.5v-90.2c0-2.6-2.2-4.8-4.8-4.8h-25.3
		c-2.1,0-3.9,1.4-4.4,3.5c-1,4.3-3.2,10.6-8.4,16.2c-0.8,0.9-1.3,1.8-1.4,2.8c-0.6,6.5-4.2,28.5-27.4,36.6c-0.9,0.3-1.6,0.7-2.1,1.3
		c-3.4,4.1-10.6,8.9-25.7,8.5c-9.1-0.3-17.7-4.3-21.5-8.1c-3.1-3.1-6.5-7.4-6.5-13.1v-37.9c2.3-1.8,4-4.3,4.9-7.1v45.1
		c0,3.1,1.5,6,5.2,9.7c2.6,2.6,9.9,6.4,18.1,6.6c13.2,0.4,19.2-3.4,21.9-6.7c1.1-1.3,2.6-2.3,4.2-2.9c20.4-7.1,23.6-26.5,24.1-32.3
		c0.2-2.1,1.1-4.1,2.6-5.8c4.5-4.8,6.4-10.2,7.2-13.9c1-4.4,4.8-7.4,9.2-7.4h25.8C307.6,200,311.7,204.2,311.7,209.4z"/>
	<g>
		<path class="st0" d="M103.6,86.9c-1.1-1.3-2.4-2.4-4-3c-1.3-0.6-2.7-0.9-4.2-0.9c-1.8,0-3.5,0.5-5,1.3c-1.5,0.7-2.7,1.9-3.6,3.3
			c-1.1,1.6-1.8,3.6-1.8,5.8c0,2.7,1,4.9,2.6,6.8v0.1c1.1,1.2,2.5,2.2,4,2.8c1.2,0.5,2.5,0.8,3.8,0.8c5.8,0,10.4-4.7,10.4-10.4
			C105.9,91,105,88.7,103.6,86.9z M95.5,101.4c-1,0-2-0.2-2.8-0.5c-1.6-0.6-3-1.7-3.9-3.1c-0.8-1.2-1.3-2.7-1.3-4.3
			c0-1.4,0.4-2.8,1.1-3.9c0.7-1.3,1.8-2.4,3.2-3.1c1.1-0.6,2.3-0.9,3.6-0.9c0.8,0,1.5,0.1,2.2,0.3c1.7,0.4,3.1,1.5,4.1,2.8
			c1.1,1.3,1.7,3,1.7,4.8C103.4,97.8,99.8,101.4,95.5,101.4z"/>
		<path class="st0" d="M105.5,85.5c-1-1.3-2.4-2.5-3.8-3.2c-1.9-1.1-4-1.7-6.2-1.7c-2.5,0-4.8,0.7-6.8,2c-1.4,0.9-2.7,2-3.6,3.4
			c-1.6,2.1-2.5,4.7-2.5,7.5c0,3.7,1.5,7,4,9.3c1.2,1.2,2.7,2.1,4.2,2.7c1.5,0.6,3.1,0.9,4.7,0.9c7.1,0,12.9-5.8,12.9-12.9
			C108.3,90.4,107.3,87.7,105.5,85.5z M95.5,101.4c-1,0-2-0.2-2.8-0.5c-1.6-0.6-3-1.7-3.9-3.1c-0.8-1.2-1.3-2.7-1.3-4.3
			c0-1.4,0.4-2.8,1.1-3.9c0.7-1.3,1.8-2.4,3.2-3.1c1.1-0.6,2.3-0.9,3.6-0.9c0.8,0,1.5,0.1,2.2,0.3c1.7,0.4,3.1,1.5,4.1,2.8
			c1.1,1.3,1.7,3,1.7,4.8C103.4,97.8,99.8,101.4,95.5,101.4z"/>
	</g>
	<g>
		<path class="st0" d="M88.5,237.9c-1.2,0-2.4,0.2-3.4,0.6c-1.6,0.5-3,1.5-4.2,2.7c-1.7,1.9-2.8,4.4-2.8,7.1
			c0,5.8,4.7,10.4,10.4,10.4c1.7,0,3.3-0.4,4.7-1.1c1.5-0.8,2.8-2,3.8-3.3c1.2-1.7,1.9-3.8,1.9-5.9
			C98.9,242.6,94.3,237.9,88.5,237.9z M91.1,255.8c-0.8,0.3-1.7,0.5-2.6,0.5c-4.4,0-8-3.6-8-8c0-1.7,0.5-3.3,1.5-4.6
			c0.9-1.4,2.4-2.5,4-3c0.7-0.3,1.6-0.4,2.4-0.4c4.4,0,8,3.6,8,8c0,1.6-0.5,3.1-1.4,4.4C94.2,254.2,92.8,255.2,91.1,255.8z"/>
		<path class="st0" d="M88.5,235.4c-1.5,0-2.9,0.3-4.3,0.7c-1.6,0.5-3.1,1.4-4.3,2.6c-2.7,2.4-4.3,5.8-4.3,9.6
			c0,2.8,0.9,5.4,2.4,7.5c1,1.3,2.2,2.5,3.6,3.3c2,1.3,4.3,2.1,6.9,2.1c2.6,0,4.9-0.7,6.9-2c1.5-0.9,2.7-2.2,3.6-3.6
			c1.5-2.1,2.3-4.6,2.3-7.3C101.4,241.2,95.7,235.4,88.5,235.4z M95.1,252.7c-0.9,1.4-2.3,2.5-4,3.1c-0.8,0.3-1.7,0.5-2.6,0.5
			c-4.4,0-8-3.6-8-8c0-1.7,0.5-3.3,1.5-4.6c0.9-1.4,2.4-2.5,4-3c0.7-0.3,1.6-0.4,2.4-0.4c4.4,0,8,3.6,8,8
			C96.5,249.9,96,251.4,95.1,252.7z"/>
	</g>
	<g>
		<path class="st0" d="M67.9,158.5c-1.3-0.6-2.8-0.9-4.3-0.9c-0.2,0-0.4,0-0.6,0.1c-4.7,0.3-8.6,3.6-9.6,8.1
			c-0.2,0.7-0.3,1.5-0.3,2.3s0.1,1.5,0.3,2.3c0.9,4,4.1,7.2,8.2,8c0.6,0.1,1.3,0.2,2,0.2c1,0,2.1-0.1,3-0.4c4.3-1.3,7.4-5.3,7.4-10
			C74.1,163.7,71.6,160.1,67.9,158.5z M66.3,175.4c-0.8,0.3-1.7,0.5-2.6,0.5c-0.8,0-1.7-0.1-2.4-0.4c-3.2-1-5.5-4-5.5-7.6
			c0-3.9,2.8-7.2,6.6-7.8c0.4-0.1,0.9-0.1,1.4-0.1c1.3,0,2.5,0.3,3.5,0.9c2.7,1.2,4.4,3.9,4.4,7.1C71.6,171.4,69.4,174.4,66.3,175.4
			z"/>
		<path class="st0" d="M68.9,156.1c-1.5-0.6-3.1-1-4.9-1.1h-0.3c-6.2,0-11.5,4.5-12.7,10.5c-0.1,0.8-0.2,1.6-0.2,2.4
			s0.1,1.7,0.3,2.5c1.1,5.4,5.6,9.7,11.2,10.3c0.5,0,0.9,0.1,1.4,0.1c1.2,0,2.4-0.2,3.5-0.5c5.4-1.5,9.3-6.5,9.3-12.4
			C76.5,162.7,73.4,158.2,68.9,156.1z M63.7,175.9c-0.8,0-1.7-0.1-2.4-0.4c-3.2-1-5.5-4-5.5-7.6c0-3.9,2.8-7.2,6.6-7.8
			c0.4-0.1,0.9-0.1,1.4-0.1c1.3,0,2.5,0.3,3.5,0.9c2.7,1.2,4.4,3.9,4.4,7.1c0,3.4-2.2,6.4-5.4,7.5C65.5,175.8,64.6,175.9,63.7,175.9
			z"/>
	</g>
	<path class="st0" d="M280.8,165.5v4.9h-96.1c0.1-0.8,0.3-1.7,0.3-2.6c0-0.8-0.1-1.6-0.2-2.4H280.8z"/>
	<g>
		<g>
			<path class="st0" d="M184.2,123c-1.3-1.9-2.9-3.5-4.9-4.7c-2.7-1.8-5.9-2.8-9.3-2.8c-3.4,0-6.6,1-9.3,2.8c-2,1.2-3.6,2.8-4.9,4.7
				c-2,2.8-3.2,6.3-3.2,10c0,7.3,4.5,13.5,10.9,16.1c2,0.9,4.3,1.3,6.6,1.3s4.6-0.5,6.6-1.3c6.3-2.6,10.8-8.8,10.8-16.1
				C187.4,129.3,186.2,125.9,184.2,123z M170,148c-8.3,0-15-6.7-15-14.9c0-1.6,0.3-3.1,0.7-4.6c0.9-2.8,2.6-5.3,4.9-7.1
				c2.6-2.1,5.8-3.3,9.3-3.3c3.5,0,6.7,1.2,9.3,3.2c2.3,1.9,4,4.3,4.9,7.2c0.5,1.4,0.7,3,0.7,4.6C184.9,141.3,178.2,148,170,148z"/>
			<path class="st0" d="M184.2,119.2c-1.5-1.5-3.1-2.7-4.9-3.7c-2.8-1.5-5.9-2.3-9.3-2.3c-3.3,0-6.5,0.8-9.3,2.4
				c-1.8,0.9-3.5,2.2-4.9,3.7c-3.5,3.5-5.6,8.4-5.6,13.9c0,7.5,4.2,14,10.3,17.4c0.9,0.5,1.9,0.9,2.9,1.3c0,0,0-0.1,0.1,0
				c2.1,0.7,4.3,1.1,6.6,1.1s4.5-0.4,6.6-1.1c1-0.4,2.1-0.8,3-1.3c6.1-3.4,10.3-9.9,10.3-17.4C189.8,127.6,187.7,122.8,184.2,119.2z
				 M155.7,128.5c0.9-2.8,2.6-5.3,4.9-7.1c2.6-2.1,5.8-3.3,9.3-3.3c3.5,0,6.7,1.2,9.3,3.2c2.3,1.9,4,4.3,4.9,7.2
				c0.5,1.4,0.7,3,0.7,4.6c0,8.2-6.7,14.9-14.9,14.9c-8.3,0-15-6.7-15-14.9C155,131.5,155.3,129.9,155.7,128.5z"/>
		</g>
		<g>
			<path class="st0" d="M187.2,165.5c-0.8-6.2-5-11.4-10.6-13.7c-2-0.8-4.3-1.3-6.6-1.3s-4.6,0.4-6.6,1.3h-0.1
				c-6.3,2.6-10.8,8.8-10.8,16.1s4.4,13.5,10.8,16.1c2.1,0.8,4.3,1.3,6.7,1.3c2.4,0,4.6-0.5,6.6-1.3c5.6-2.3,9.7-7.4,10.6-13.6
				c0.1-0.8,0.2-1.7,0.2-2.6C187.4,167.1,187.3,166.2,187.2,165.5z M170,182.8c-8.3,0-15-6.7-15-14.9s6.7-14.9,15-14.9
				c7.4,0,13.6,5.4,14.7,12.6c0.1,0.7,0.2,1.6,0.2,2.4c0,0.9-0.1,1.7-0.3,2.6C183.5,177.4,177.3,182.8,170,182.8z"/>
			<path class="st0" d="M189.7,165.5c-0.8-6.5-4.7-12-10.1-15c-0.9-0.5-2-1-3-1.3c-2.1-0.7-4.3-1.1-6.6-1.1s-4.5,0.4-6.6,1.1
				c-1,0.3-2.1,0.8-3,1.3c-6.1,3.4-10.3,9.9-10.3,17.4s4.2,14,10.3,17.4c0.9,0.5,1.9,1,2.9,1.3c0,0,0,0,0.1,0
				c2.1,0.7,4.3,1.1,6.6,1.1s4.5-0.4,6.6-1.1c1-0.3,2.1-0.8,3-1.3c5.4-3,9.3-8.4,10.1-14.8c0.1-0.8,0.2-1.7,0.2-2.6
				C189.8,167.1,189.8,166.2,189.7,165.5z M184.9,167.8c0,0.9-0.1,1.7-0.3,2.6c-1.2,7-7.4,12.4-14.7,12.4c-8.3,0-15-6.7-15-14.9
				c0-8.3,6.7-14.9,15-14.9c7.4,0,13.6,5.4,14.7,12.6C184.9,166.2,184.9,167.1,184.9,167.8z"/>
		</g>
		<g>
			<path class="st0" d="M176.6,186.6c-2-0.8-4.3-1.3-6.6-1.3s-4.6,0.4-6.6,1.3c-0.1,0-0.1,0-0.1,0c-6.3,2.6-10.8,8.8-10.8,16.1
				c0,3.7,1.2,7.2,3.2,10c1.3,1.9,2.9,3.4,4.9,4.7c2.7,1.7,5.9,2.7,9.3,2.7c3.4,0,6.6-1,9.3-2.7c2-1.2,3.6-2.8,4.9-4.7
				c2-2.9,3.2-6.3,3.2-10C187.4,195.4,182.9,189.2,176.6,186.6z M179.3,214.4c-2.6,2-5.8,3.2-9.3,3.2c-3.5,0-6.8-1.2-9.3-3.3
				c-2.3-1.8-4-4.2-4.9-7.1c-0.5-1.4-0.7-2.9-0.7-4.6c0-8.3,6.7-15,15-15c8.2,0,14.9,6.7,14.9,15c0,1.6-0.3,3.1-0.7,4.6
				C183.3,210.1,181.5,212.6,179.3,214.4z"/>
			<path class="st0" d="M170,187.7c-2.3,0-4.5-0.4-6.6-1.1c-0.1,0-0.1,0-0.1,0c-6.3,2.6-10.8,8.8-10.8,16.1c0,3.7,1.2,7.2,3.2,10
				v-5.4c-0.5-1.4-0.7-2.9-0.7-4.6C155,194.4,161.7,187.7,170,187.7z M179.6,185.2c-0.9-0.5-1.9-0.9-2.9-1.3
				c-2.1-0.8-4.3-1.2-6.6-1.2c-2.4,0-4.6,0.4-6.7,1.2c-1,0.3-2,0.8-2.9,1.3c-6.1,3.4-10.3,10-10.3,17.4c0,5.4,2.2,10.3,5.6,13.9
				c1.4,1.5,3.1,2.7,4.9,3.6c2.8,1.5,6,2.4,9.3,2.4s6.5-0.8,9.3-2.3c1.8-0.9,3.4-2.2,4.9-3.6c3.5-3.6,5.6-8.5,5.6-13.9
				C189.8,195.2,185.7,188.6,179.6,185.2z M179.3,214.4c-2.6,2-5.8,3.2-9.3,3.2c-3.5,0-6.8-1.2-9.3-3.3c-2.3-1.8-4-4.2-4.9-7.1
				c-0.5-1.4-0.7-2.9-0.7-4.6c0-8.3,6.7-15,15-15c8.2,0,14.9,6.7,14.9,15c0,1.6-0.3,3.1-0.7,4.6
				C183.3,210.1,181.5,212.6,179.3,214.4z"/>
		</g>
	</g>
	<g>
		<path class="st0" d="M296.7,158h-17c-0.8,0-1.4,0.6-1.4,1.4v16.9c0,0.8,0.6,1.4,1.4,1.4h17c0.7,0,1.4-0.6,1.4-1.4v-16.9
			C298.1,158.7,297.4,158,296.7,158z M295.6,175.4h-14.8v-14.9h14.8V175.4z"/>
		<path class="st0" d="M296.7,155.6h-17c-2.1,0-3.8,1.8-3.8,3.9v16.9c0,2.2,1.7,3.9,3.8,3.9h17c2.1,0,3.8-1.7,3.8-3.9v-16.9
			C300.5,157.3,298.8,155.6,296.7,155.6z M295.6,175.4h-14.8v-14.9h14.8V175.4z"/>
	</g>
</g>
<g>
	<path class="st0" d="M37.8,330.5v32.2h15.6v4.4H32.1v-36.6L37.8,330.5L37.8,330.5z"/>
	<path class="st0" d="M65.5,330.5v24.3c0,2.6,0.7,4.6,2.1,6.2c1.4,1.6,3.6,2.4,6.8,2.4c1.7,0,3.2-0.1,4.6-0.3
		c1.4-0.2,2.6-0.5,3.5-0.7v-31.8h5.8v34.9c-1.6,0.5-3.6,1-5.9,1.5c-2.3,0.5-5,0.8-8.2,0.8c-2.6,0-4.9-0.3-6.7-0.9
		c-1.8-0.6-3.3-1.5-4.5-2.7c-1.2-1.1-2-2.5-2.5-4.1c-0.5-1.6-0.8-3.4-0.8-5.4v-24L65.5,330.5L65.5,330.5z"/>
	<path class="st0" d="M103.8,330.5l20,21.4v-21.4h5.6v36.6h-5.6v-8.3l-19-20.1v28.4h-5.6v-36.6L103.8,330.5L103.8,330.5z"/>
	<path class="st0" d="M145.4,367.1h-5.7v-23.8c0-2,0.2-3.8,0.7-5.4c0.5-1.6,1.2-3,2.3-4.2s2.5-2.1,4.3-2.8s4-1,6.6-1s4.9,0.3,6.7,1
		c1.8,0.6,3.2,1.6,4.3,2.8s1.9,2.6,2.3,4.2c0.5,1.6,0.7,3.4,0.7,5.4v23.8h-5.8v-13.5h-16.4L145.4,367.1L145.4,367.1z M161.8,349.2
		v-6c0-1.3-0.1-2.5-0.4-3.5c-0.3-1.1-0.7-2-1.4-2.8s-1.5-1.4-2.5-1.8c-1-0.4-2.4-0.7-3.9-0.7c-1.6,0-2.9,0.2-4,0.7s-1.9,1-2.5,1.8
		s-1.1,1.7-1.4,2.8c-0.3,1.1-0.4,2.3-0.4,3.5v6H161.8z"/>
	<path class="st0" d="M190.1,330.5c2.6,0,4.9,0.4,7,1c2,0.7,3.7,1.8,5.1,3.3c1.4,1.5,2.5,3.3,3.2,5.6c0.7,2.3,1.1,4.9,1.1,8.1
		c0,3-0.3,5.7-0.9,8.1c-0.6,2.4-1.6,4.4-2.9,6c-1.4,1.6-3.1,2.9-5.3,3.8c-2.2,0.9-4.9,1.3-8.1,1.3c-1.8,0-3.7-0.1-5.6-0.3
		c-1.9-0.2-3.9-0.6-6-1v-35.8L190.1,330.5L190.1,330.5z M183.5,362.9c1.8,0.3,3.8,0.5,6,0.5c3.9,0,6.7-1.2,8.4-3.6
		c1.8-2.4,2.6-6.1,2.6-11.3c0-2.5-0.2-4.6-0.7-6.3c-0.5-1.7-1.2-3.1-2-4.2c-0.9-1.1-2-1.9-3.3-2.4c-1.3-0.5-2.8-0.7-4.4-0.7h-6.6
		V362.9z"/>
	<path class="st0" d="M220.1,367.1h-5.7v-23.8c0-2,0.2-3.8,0.7-5.4c0.5-1.6,1.2-3,2.3-4.2s2.5-2.1,4.3-2.8s4-1,6.6-1s4.9,0.3,6.7,1
		c1.8,0.6,3.2,1.6,4.3,2.8s1.9,2.6,2.3,4.2c0.5,1.6,0.7,3.4,0.7,5.4v23.8h-5.8v-13.5h-16.4L220.1,367.1L220.1,367.1z M236.5,349.2
		v-6c0-1.3-0.1-2.5-0.4-3.5c-0.3-1.1-0.7-2-1.4-2.8s-1.5-1.4-2.5-1.8c-1-0.4-2.4-0.7-3.9-0.7c-1.6,0-2.9,0.2-4,0.7s-1.9,1-2.5,1.8
		s-1.1,1.7-1.4,2.8c-0.3,1.1-0.4,2.3-0.4,3.5v6H236.5z"/>
	<path class="st0" d="M276,330.5v4.4h-12v32.2h-5.8v-32.2h-12v-4.4H276z"/>
	<path class="st0" d="M285.6,367.1h-5.7v-23.8c0-2,0.2-3.8,0.7-5.4c0.5-1.6,1.2-3,2.3-4.2s2.5-2.1,4.3-2.8s4-1,6.6-1s4.9,0.3,6.7,1
		c1.8,0.6,3.2,1.6,4.3,2.8c1.1,1.2,1.9,2.6,2.3,4.2c0.5,1.6,0.7,3.4,0.7,5.4v23.8h-5.8v-13.5h-16.4L285.6,367.1L285.6,367.1z
		 M302.1,349.2v-6c0-1.3-0.1-2.5-0.4-3.5c-0.3-1.1-0.7-2-1.4-2.8s-1.5-1.4-2.5-1.8c-1-0.4-2.4-0.7-3.9-0.7c-1.6,0-2.9,0.2-4,0.7
		s-1.9,1-2.5,1.8c-0.6,0.8-1.1,1.7-1.4,2.8c-0.3,1.1-0.4,2.3-0.4,3.5v6H302.1z"/>
</g>
</svg>
